<?xml version="1.0" standalone="no"?>
<!DOCTYPE svg PUBLIC "-//W3C//DTD SVG 20010904//EN"
 "http://www.w3.org/TR/2001/REC-SVG-20010904/DTD/svg10.dtd">
<svg version="1.0" xmlns="http://www.w3.org/2000/svg"
 width="500.000000pt" height="500.000000pt" viewBox="0 0 500.000000 500.000000"
 preserveAspectRatio="xMidYMid meet">
<metadata>
Created by potrace 1.14, written by Peter Selinger 2001-2017
</metadata>
<g transform="translate(0.000000,500.000000) scale(0.100000,-0.100000)"
fill="#000000" stroke="none">
<path d="M2244 4649 c-67 -10 -139 -22 -160 -28 -21 -5 -53 -13 -70 -15 -100
-18 -424 -144 -514 -201 -22 -14 -42 -25 -45 -25 -10 0 -179 -112 -238 -157
-517 -398 -834 -1021 -846 -1663 -1 -74 -4 -137 -7 -139 -2 -2 -15 1 -29 7
-30 14 -30 14 -9 -80 9 -40 20 -89 24 -108 4 -19 28 -127 54 -240 26 -113 49
-216 51 -230 3 -14 11 -51 20 -82 8 -32 17 -71 20 -87 3 -16 14 -67 24 -113
11 -46 47 -207 81 -358 34 -151 64 -277 66 -279 3 -3 123 104 222 196 7 7 15
13 17 13 1 0 48 -44 103 -98 54 -54 137 -128 183 -163 92 -72 204 -149 215
-149 4 0 15 -6 23 -14 26 -22 159 -91 261 -134 182 -77 405 -136 610 -161 98
-12 373 -11 475 1 399 47 755 190 1082 434 108 81 325 300 410 414 281 378
428 800 438 1260 6 271 -25 477 -111 738 -68 208 -221 497 -339 641 -112 137
-241 268 -340 346 -27 22 -55 45 -61 50 -6 6 -37 28 -70 50 -32 22 -61 42 -64
46 -3 3 -41 26 -85 51 -277 158 -536 244 -850 283 -147 18 -391 15 -541 -6z
m376 -853 c146 -10 182 -17 310 -58 343 -111 611 -342 770 -663 101 -204 141
-387 135 -615 -6 -199 -44 -352 -135 -535 -129 -262 -331 -463 -595 -593 -179
-88 -326 -123 -535 -128 -372 -9 -689 119 -965 389 -53 52 -58 60 -43 71 9 7
61 53 115 103 54 50 117 108 141 129 l43 38 -173 57 c-95 31 -220 71 -278 89
-116 37 -119 38 -124 66 -2 10 -9 37 -14 59 -6 22 -14 60 -17 85 -3 25 -8 53
-11 63 -8 25 -7 244 1 297 12 83 16 105 31 165 24 92 53 173 91 250 169 345
474 595 845 694 74 20 101 24 233 37 33 3 62 7 63 9 2 2 9 2 15 0 7 -2 50 -6
97 -9z"/>
</g>
</svg>
